<svg width="50" height="50" viewBox="0 0 50 50" fill="none" xmlns="http://www.w3.org/2000/svg">
<g filter="url(#filter0_d)">
<circle cx="23" cy="22" r="15" fill="#5855D6"/>
<path d="M28.3025 16.6975C27.0719 15.4589 25.4477 14.6884 23.7099 14.5189C21.9722 14.3495 20.2297 14.7916 18.783 15.7691C17.3363 16.7466 16.2759 18.1983 15.7848 19.8738C15.2936 21.5493 15.4024 23.3436 16.0925 24.9475C16.1644 25.0966 16.188 25.2644 16.16 25.4275L15.5 28.6C15.4745 28.7217 15.4797 28.8477 15.5151 28.9668C15.5504 29.086 15.6148 29.1944 15.7025 29.2825C15.7743 29.3538 15.8599 29.4099 15.954 29.4473C16.0481 29.4847 16.1488 29.5026 16.25 29.5H16.4L19.61 28.855C19.7731 28.8354 19.9386 28.8587 20.09 28.9225C21.6938 29.6125 23.4882 29.7213 25.1637 29.2302C26.8392 28.739 28.2909 27.6787 29.2684 26.232C30.2459 24.7853 30.688 23.0428 30.5185 21.3051C30.3491 19.5673 29.5786 17.9431 28.34 16.7125L28.3025 16.6975ZM20 22.75C19.8516 22.75 19.7066 22.706 19.5833 22.6236C19.46 22.5412 19.3638 22.4241 19.3071 22.287C19.2503 22.15 19.2354 21.9992 19.2644 21.8537C19.2933 21.7082 19.3647 21.5746 19.4696 21.4697C19.5745 21.3648 19.7082 21.2934 19.8536 21.2644C19.9991 21.2355 20.1499 21.2503 20.287 21.3071C20.424 21.3639 20.5412 21.46 20.6236 21.5833C20.706 21.7067 20.75 21.8517 20.75 22C20.75 22.1989 20.6709 22.3897 20.5303 22.5303C20.3896 22.671 20.1989 22.75 20 22.75ZM23 22.75C22.8516 22.75 22.7066 22.706 22.5833 22.6236C22.46 22.5412 22.3638 22.4241 22.3071 22.287C22.2503 22.15 22.2354 21.9992 22.2644 21.8537C22.2933 21.7082 22.3647 21.5746 22.4696 21.4697C22.5745 21.3648 22.7082 21.2934 22.8536 21.2644C22.9991 21.2355 23.1499 21.2503 23.287 21.3071C23.424 21.3639 23.5412 21.46 23.6236 21.5833C23.706 21.7067 23.75 21.8517 23.75 22C23.75 22.1989 23.6709 22.3897 23.5303 22.5303C23.3896 22.671 23.1989 22.75 23 22.75ZM26 22.75C25.8516 22.75 25.7066 22.706 25.5833 22.6236C25.46 22.5412 25.3638 22.4241 25.3071 22.287C25.2503 22.15 25.2354 21.9992 25.2644 21.8537C25.2933 21.7082 25.3647 21.5746 25.4696 21.4697C25.5745 21.3648 25.7082 21.2934 25.8536 21.2644C25.9991 21.2355 26.1499 21.2503 26.287 21.3071C26.424 21.3639 26.5412 21.46 26.6236 21.5833C26.706 21.7067 26.75 21.8517 26.75 22C26.75 22.1989 26.6709 22.3897 26.5303 22.5303C26.3896 22.671 26.1989 22.75 26 22.75Z" fill="white"/>
<circle cx="29.5" cy="16.5" r="3.5" fill="#6FCF97"/>
</g>
<defs>
<filter id="filter0_d" x="-4" y="-4" width="58" height="58" filterUnits="userSpaceOnUse" color-interpolation-filters="sRGB">
<feFlood flood-opacity="0" result="BackgroundImageFix"/>
<feColorMatrix in="SourceAlpha" type="matrix" values="0 0 0 0 0 0 0 0 0 0 0 0 0 0 0 0 0 0 127 0" result="hardAlpha"/>
<feOffset dx="2" dy="3"/>
<feGaussianBlur stdDeviation="5"/>
<feColorMatrix type="matrix" values="0 0 0 0 0 0 0 0 0 0 0 0 0 0 0 0 0 0 0.25 0"/>
<feBlend mode="normal" in2="BackgroundImageFix" result="effect1_dropShadow"/>
<feBlend mode="normal" in="SourceGraphic" in2="effect1_dropShadow" result="shape"/>
</filter>
</defs>
</svg>
