<svg width="38" height="26" viewBox="0 0 38 26" fill="none" xmlns="http://www.w3.org/2000/svg">
<path d="M0.217072 26L8.38907 3.716C8.79707 2.612 9.46907 1.784 10.4051 1.232C11.3411 0.655999 12.3971 0.368 13.5731 0.368C14.7491 0.368 15.8051 0.644 16.7411 1.196C17.6771 1.724 18.3491 2.552 18.7571 3.68L26.9651 26H20.4491L18.8651 21.14H8.17307L6.51707 26H0.217072ZM9.72107 16.136H17.3171L14.1131 6.092C14.0171 5.828 13.8491 5.696 13.6091 5.696C13.3691 5.696 13.2131 5.828 13.1411 6.092L9.72107 16.136ZM27.7079 19.016V14.516H37.8959V19.016H27.7079Z" fill="#9592A6"/>
</svg>
