<svg width="153" height="48" viewBox="0 0 153 48" fill="none" xmlns="http://www.w3.org/2000/svg">
<path d="M49.68 35.36C47.98 35.36 46.47 35.01 45.15 34.31C43.85 33.61 42.82 32.62 42.06 31.34C41.32 30.04 40.95 28.5 40.95 26.72V14H45.24V26.99C45.24 27.83 45.42 28.6 45.78 29.3C46.14 29.98 46.65 30.53 47.31 30.95C47.99 31.37 48.78 31.58 49.68 31.58C50.6 31.58 51.39 31.37 52.05 30.95C52.71 30.53 53.22 29.98 53.58 29.3C53.94 28.6 54.12 27.83 54.12 26.99V14H58.41V26.72C58.41 28.5 58.03 30.04 57.27 31.34C56.53 32.62 55.5 33.61 54.18 34.31C52.88 35.01 51.38 35.36 49.68 35.36ZM62.9074 35V26.21C62.9074 24.95 63.1974 23.8 63.7774 22.76C64.3774 21.72 65.2374 20.89 66.3574 20.27C67.4774 19.65 68.8174 19.34 70.3774 19.34C71.9574 19.34 73.2974 19.65 74.3974 20.27C75.5174 20.89 76.3674 21.72 76.9474 22.76C77.5474 23.8 77.8474 24.95 77.8474 26.21V35H73.7374V26.21C73.7374 25.27 73.4074 24.48 72.7474 23.84C72.1074 23.18 71.3174 22.85 70.3774 22.85C69.4574 22.85 68.6674 23.18 68.0074 23.84C67.3474 24.48 67.0174 25.27 67.0174 26.21V35H62.9074ZM82.3453 35V19.7H86.4853V35H82.3453ZM84.4153 17.87C83.7153 17.87 83.1053 17.62 82.5853 17.12C82.0853 16.6 81.8353 15.99 81.8353 15.29C81.8353 14.59 82.0853 13.99 82.5853 13.49C83.1053 12.97 83.7153 12.71 84.4153 12.71C85.1153 12.71 85.7153 12.97 86.2153 13.49C86.7353 13.99 86.9953 14.59 86.9953 15.29C86.9953 15.99 86.7353 16.6 86.2153 17.12C85.7153 17.62 85.1153 17.87 84.4153 17.87ZM97.6334 35.36C96.7334 35.36 95.9134 35.12 95.1734 34.64C94.4534 34.16 93.9534 33.53 93.6734 32.75L89.2934 19.7H93.7634L97.3034 31.07C97.3634 31.23 97.4834 31.31 97.6634 31.31C97.8434 31.31 97.9634 31.23 98.0234 31.07L101.593 19.7H105.973L101.593 32.72C101.313 33.5 100.803 34.14 100.063 34.64C99.3434 35.12 98.5334 35.36 97.6334 35.36ZM115.953 35C114.213 35 112.693 34.67 111.393 34.01C110.113 33.33 109.113 32.41 108.393 31.25C107.693 30.09 107.343 28.79 107.343 27.35C107.343 25.73 107.673 24.32 108.333 23.12C108.993 21.92 109.893 20.99 111.033 20.33C112.173 19.67 113.463 19.34 114.903 19.34C116.623 19.34 118.013 19.7 119.073 20.42C120.153 21.14 120.943 22.11 121.443 23.33C121.943 24.53 122.193 25.87 122.193 27.35C122.193 27.55 122.183 27.79 122.163 28.07C122.143 28.33 122.113 28.53 122.073 28.67H111.723C111.943 29.59 112.433 30.29 113.193 30.77C113.973 31.25 114.913 31.49 116.013 31.49H120.273V35H115.953ZM111.693 25.91H118.083C118.003 24.93 117.693 24.16 117.153 23.6C116.633 23.02 115.893 22.73 114.933 22.73C113.913 22.73 113.143 23.06 112.623 23.72C112.103 24.36 111.793 25.09 111.693 25.91ZM113.193 17.69L115.713 14H119.583L117.063 17.69H113.193Z" fill="url(#paint0_linear)"/>
<path d="M23.1443 9.24539C22.0653 9.24662 21.0308 9.6755 20.2681 10.4379C19.5052 11.2004 19.076 12.2341 19.075 13.3123V23.4422C19.0864 24.1672 18.9535 24.887 18.6838 25.56C18.4141 26.233 18.0133 26.8456 17.5044 27.3623C16.9954 27.879 16.3887 28.2893 15.7196 28.5693C15.0505 28.8494 14.3323 28.9936 13.6068 28.9936C12.8814 28.9936 12.1632 28.8494 11.4941 28.5693C10.825 28.2893 10.2183 27.879 9.70938 27.3623C9.20048 26.8456 8.79953 26.233 8.52987 25.56C8.26021 24.887 8.12724 24.1672 8.13869 23.4422V13.3123C8.13869 12.2338 7.70995 11.1995 6.9468 10.4369C6.18365 9.67425 5.1486 9.24582 4.06934 9.24582C2.99009 9.24582 1.95503 9.67425 1.19188 10.4369C0.42873 11.1995 0 12.2338 0 13.3123V24.5148C-5.3253e-08 26.3004 0.35195 28.0686 1.03576 29.7184C1.71957 31.3681 2.72185 32.867 3.98535 34.1297C5.24886 35.3923 6.74887 36.3939 8.39973 37.0773C10.0506 37.7605 11.82 38.1122 13.6068 38.1122C15.3937 38.1122 17.1631 37.7605 18.814 37.0773C20.4649 36.3939 21.9648 35.3923 23.2283 34.1297C24.4919 32.867 25.4942 31.3681 26.1778 29.7184C26.8617 28.0686 27.2137 26.3004 27.2137 24.5148V13.3123C27.2125 12.2341 26.7835 11.2004 26.0206 10.4379C25.2577 9.6755 24.2232 9.24662 23.1443 9.24539ZM25.4333 24.514C25.4333 27.6485 24.1873 30.6544 21.9694 32.8707C19.7515 35.087 16.7434 36.3323 13.6068 36.3323C10.4703 36.3323 7.46215 35.087 5.24426 32.8707C3.02636 30.6544 1.78035 27.6485 1.78035 24.514V13.3123C1.78557 12.7091 2.02901 12.1323 2.45772 11.7076C2.88642 11.2829 3.46566 11.0446 4.06934 11.0446C4.67303 11.0446 5.25227 11.2829 5.68096 11.7076C6.10966 12.1323 6.35312 12.7091 6.35833 13.3123V23.4422C6.35833 25.3634 7.12201 27.2058 8.48137 28.5642C9.84072 29.9227 11.6844 30.6857 13.6068 30.6857C15.5293 30.6857 17.373 29.9227 18.7324 28.5642C20.0916 27.2058 20.8554 25.3634 20.8554 23.4422V13.3123C20.8554 12.7057 21.0964 12.1239 21.5258 11.6949C21.9551 11.2659 22.5372 11.0249 23.1443 11.0249C23.7515 11.0249 24.3336 11.2659 24.7629 11.6949C25.1921 12.1239 25.4333 12.7057 25.4333 13.3123V24.514Z" fill="url(#paint1_linear)"/>
<path d="M12.7167 11.3187V23.0462C12.7167 23.2822 12.8105 23.5085 12.9774 23.6753C13.1444 23.8422 13.3708 23.9358 13.6069 23.9358C13.843 23.9358 14.0694 23.8422 14.2363 23.6753C14.4033 23.5085 14.4971 23.2822 14.4971 23.0462V11.3187C15.6464 11.0974 16.6719 10.456 17.3734 9.51967C18.0748 8.58334 18.4019 7.41937 18.2907 6.25501C18.1794 5.09065 17.638 4.00954 16.7719 3.22275C15.9058 2.43596 14.7773 2 13.6069 2C12.4364 2 11.308 2.43596 10.4419 3.22275C9.57583 4.00954 9.03432 5.09065 8.9231 6.25501C8.81187 7.41937 9.13892 8.58334 9.8404 9.51967C10.5419 10.456 11.5674 11.0974 12.7167 11.3187ZM13.6069 3.78103C14.1854 3.78103 14.7509 3.95246 15.2319 4.27363C15.7129 4.59481 16.0878 5.0513 16.3091 5.5854C16.5305 6.11949 16.5884 6.70719 16.4756 7.27418C16.3627 7.84117 16.0841 8.36196 15.675 8.77073C15.2659 9.17949 14.7448 9.45785 14.1774 9.57061C13.61 9.68338 13.0219 9.62546 12.4875 9.40422C11.953 9.18296 11.4962 8.80831 11.1748 8.32762C10.8535 7.84694 10.682 7.28182 10.682 6.70372C10.6829 5.92883 10.9913 5.18592 11.5397 4.638C12.088 4.09009 12.8314 3.78188 13.6069 3.78103Z" fill="url(#paint2_linear)"/>
<defs>
<linearGradient id="paint0_linear" x1="45.5" y1="2.40661e-06" x2="121" y2="48" gradientUnits="userSpaceOnUse">
<stop stop-color="white" stop-opacity="0.69"/>
<stop offset="1" stop-color="#DEDDFF" stop-opacity="0.7"/>
</linearGradient>
<linearGradient id="paint1_linear" x1="0" y1="23.6789" x2="27.2137" y2="23.6789" gradientUnits="userSpaceOnUse">
<stop stop-color="#EC441E"/>
<stop offset="1" stop-color="#EE2A4A"/>
</linearGradient>
<linearGradient id="paint2_linear" x1="8.90179" y1="12.9679" x2="18.312" y2="12.9679" gradientUnits="userSpaceOnUse">
<stop stop-color="#EC441E"/>
<stop offset="1" stop-color="#EE2A4A"/>
</linearGradient>
</defs>
</svg>
