<svg width="51" height="48" viewBox="0 0 51 48" fill="none" xmlns="http://www.w3.org/2000/svg">
<rect width="51" height="48" fill="#333269"/>
<path d="M33.2989 15.0416C32.3992 15.0426 31.5366 15.4002 30.9006 16.036C30.2644 16.6717 29.9066 17.5337 29.9057 18.4328V26.8796C29.9152 27.4841 29.8044 28.0843 29.5795 28.6455C29.3547 29.2067 29.0204 29.7175 28.596 30.1483C28.1716 30.5792 27.6658 30.9213 27.1078 31.1549C26.5499 31.3884 25.951 31.5086 25.3461 31.5086C24.7412 31.5086 24.1423 31.3884 23.5844 31.1549C23.0264 30.9213 22.5205 30.5792 22.0962 30.1483C21.6718 29.7175 21.3375 29.2067 21.1126 28.6455C20.8878 28.0843 20.7769 27.4841 20.7865 26.8796V18.4328C20.7865 17.5335 20.429 16.671 19.7926 16.0351C19.1562 15.3992 18.2932 15.0419 17.3932 15.0419C16.4933 15.0419 15.6302 15.3992 14.9939 16.0351C14.3575 16.671 14 17.5335 14 18.4328V27.774C14 29.2629 14.2935 30.7374 14.8637 32.113C15.4339 33.4886 16.2696 34.7385 17.3232 35.7914C18.3768 36.8442 19.6276 37.6794 21.0041 38.2492C22.3807 38.8189 23.8561 39.1122 25.3461 39.1122C26.8361 39.1122 28.3115 38.8189 29.6881 38.2492C31.0647 37.6794 32.3154 36.8442 33.3689 35.7914C34.4226 34.7385 35.2583 33.4886 35.8284 32.113C36.3987 30.7374 36.6922 29.2629 36.6922 27.774V18.4328C36.6912 17.5337 36.3335 16.6717 35.6973 16.036C35.0612 15.4002 34.1986 15.0426 33.2989 15.0416ZM35.2076 27.7733C35.2076 30.387 34.1686 32.8935 32.3192 34.7416C30.4698 36.5897 27.9615 37.628 25.3461 37.628C22.7306 37.628 20.2223 36.5897 18.3729 34.7416C16.5235 32.8935 15.4846 30.387 15.4846 27.7733V18.4328C15.4889 17.9298 15.6919 17.4489 16.0494 17.0947C16.4068 16.7405 16.8898 16.5418 17.3932 16.5418C17.8966 16.5418 18.3796 16.7405 18.7371 17.0947C19.0946 17.4489 19.2976 17.9298 19.3019 18.4328V26.8796C19.3019 28.4815 19.9387 30.0179 21.0722 31.1506C22.2057 32.2833 23.7431 32.9196 25.3461 32.9196C26.9491 32.9196 28.4865 32.2833 29.62 31.1506C30.7534 30.0179 31.3903 28.4815 31.3903 26.8796V18.4328C31.3903 17.9269 31.5913 17.4418 31.9493 17.0841C32.3073 16.7264 32.7927 16.5254 33.2989 16.5254C33.8052 16.5254 34.2906 16.7264 34.6486 17.0841C35.0065 17.4418 35.2076 17.9269 35.2076 18.4328V27.7733Z" fill="url(#paint0_linear)"/>
<path d="M24.6039 16.7704V26.5494C24.6039 26.7462 24.6821 26.9349 24.8213 27.074C24.9605 27.2131 25.1493 27.2912 25.3462 27.2912C25.543 27.2912 25.7318 27.2131 25.8711 27.074C26.0103 26.9349 26.0885 26.7462 26.0885 26.5494V16.7704C27.0468 16.5859 27.902 16.051 28.4869 15.2703C29.0718 14.4895 29.3445 13.5189 29.2518 12.548C29.159 11.5771 28.7075 10.6757 27.9853 10.0196C27.2631 9.36353 26.3222 9 25.3462 9C24.3702 9 23.4292 9.36353 22.7071 10.0196C21.9849 10.6757 21.5334 11.5771 21.4406 12.548C21.3479 13.5189 21.6206 14.4895 22.2055 15.2703C22.7904 16.051 23.6456 16.5859 24.6039 16.7704ZM25.3462 10.4851C25.8286 10.4851 26.3001 10.6281 26.7012 10.8959C27.1023 11.1637 27.4149 11.5443 27.5995 11.9897C27.7841 12.435 27.8324 12.9251 27.7383 13.3979C27.6441 13.8707 27.4118 14.3049 27.0707 14.6458C26.7296 14.9866 26.295 15.2187 25.8219 15.3128C25.3488 15.4068 24.8584 15.3585 24.4128 15.174C23.9671 14.9895 23.5862 14.6771 23.3182 14.2763C23.0503 13.8755 22.9072 13.4043 22.9073 12.9222C22.908 12.2761 23.1652 11.6566 23.6225 11.1997C24.0797 10.7428 24.6996 10.4858 25.3462 10.4851Z" fill="url(#paint1_linear)"/>
<defs>
<linearGradient id="paint0_linear" x1="14" y1="27.077" x2="36.6922" y2="27.077" gradientUnits="userSpaceOnUse">
<stop stop-color="#EC441E"/>
<stop offset="1" stop-color="#EE2A4A"/>
</linearGradient>
<linearGradient id="paint1_linear" x1="21.4228" y1="18.1456" x2="29.2695" y2="18.1456" gradientUnits="userSpaceOnUse">
<stop stop-color="#EC441E"/>
<stop offset="1" stop-color="#EE2A4A"/>
</linearGradient>
</defs>
</svg>
